<?xml version="1.0" encoding="iso-8859-1"?>
<!-- Generator: Adobe Illustrator 19.0.0, SVG Export Plug-In . SVG Version: 6.00 Build 0)  -->
<svg version="1.1" id="Capa_1" xmlns="http://www.w3.org/2000/svg" xmlns:xlink="http://www.w3.org/1999/xlink" x="0px" y="0px"
	 viewBox="0 0 480 480" style="enable-background:new 0 0 480 480;" xml:space="preserve">
<g>
	<g>
		<path d="M448,48c-17.648,0-32,14.352-32,32c0,1.34,0.219,2.674,0.393,4.011l-62.65,25.083C347.869,100.985,338.466,96,328,96
			c-17.648,0-32,14.352-32,32c0,5.078,1.306,9.941,3.514,14.301l-81.579,71.368C212.707,210.075,206.509,208,200,208
			c-9.146,0-17.637,3.89-23.611,10.467L95.112,175.4C95.693,172.985,96,170.515,96,168c0-17.648-14.352-32-32-32s-32,14.352-32,32
			s14.352,32,32,32c9.146,0,17.637-3.89,23.611-10.467l81.277,43.067c-0.582,2.416-0.888,4.886-0.888,7.4c0,17.648,14.352,32,32,32
			s32-14.352,32-32c0-5.078-1.306-9.941-3.514-14.301l81.578-71.368C315.293,157.925,321.491,160,328,160c17.648,0,32-14.352,32-32
			c0-1.34-0.219-2.674-0.393-4.011l62.65-25.083C428.132,107.015,437.534,112,448,112c17.648,0,32-14.352,32-32S465.648,48,448,48z
			 M78.125,175.477C75.352,180.734,69.945,184,64,184c-8.82,0-16-7.18-16-16s7.18-16,16-16s16,7.18,16,16
			C80,170.586,79.367,173.102,78.125,175.477z M200,256c-8.82,0-16-7.18-16-16c0-2.586,0.633-5.102,1.875-7.477
			c2.773-5.258,8.18-8.523,14.125-8.523c4.609,0,8.961,1.984,12.063,5.609C214.602,232.414,216,236.102,216,240
			C216,248.82,208.82,256,200,256z M328,144c-4.609,0-8.961-1.984-12.063-5.609C313.398,135.586,312,131.898,312,128
			c0-8.82,7.18-16,16-16c6.617,0,12.422,3.93,14.836,10.148C343.602,124,344,126.023,344,128C344,136.82,336.82,144,328,144z
			 M448,96c-6.617,0-12.422-3.93-14.836-10.148C432.398,84,432,81.977,432,80c0-8.82,7.18-16,16-16s16,7.18,16,16S456.82,96,448,96z
			"/>
	</g>
</g>
<g>
	<g>
		<path d="M16,464V0H0v472c0,4.422,3.578,8,8,8h472v-16H16z"/>
	</g>
</g>
<g>
	<g>
		<path d="M72,320H40c-4.422,0-8,3.578-8,8v112c0,4.422,3.578,8,8,8h32c4.422,0,8-3.578,8-8V328C80,323.578,76.422,320,72,320z
			 M64,432H48v-96h16V432z"/>
	</g>
</g>
<g>
	<g>
		<path d="M216,368h-32c-4.422,0-8,3.578-8,8v64c0,4.422,3.578,8,8,8h32c4.422,0,8-3.578,8-8v-64C224,371.578,220.422,368,216,368z
			 M208,432h-16v-48h16V432z"/>
	</g>
</g>
<g>
	<g>
		<path d="M344,256h-32c-4.422,0-8,3.578-8,8v176c0,4.422,3.578,8,8,8h32c4.422,0,8-3.578,8-8V264C352,259.578,348.422,256,344,256z
			 M336,432h-16V272h16V432z"/>
	</g>
</g>
<g>
	<g>
		<path d="M472,208h-32c-4.422,0-8,3.578-8,8v224c0,4.422,3.578,8,8,8h32c4.422,0,8-3.578,8-8V216C480,211.578,476.422,208,472,208z
			 M464,432h-16V224h16V432z"/>
	</g>
</g>
<g>
	<g>
		<path d="M88,16H40c-4.422,0-8,3.578-8,8v32c0,4.422,3.578,8,8,8h48c4.422,0,8-3.578,8-8V24C96,19.578,92.422,16,88,16z M80,48H48
			V32h32V48z"/>
	</g>
</g>
<g>
	<g>
		<rect x="112" y="16" width="80" height="16"/>
	</g>
</g>
<g>
	<g>
		<rect x="112" y="48" width="48" height="16"/>
	</g>
</g>
<g>
	<g>
		<rect x="304" y="16" width="80" height="16"/>
	</g>
</g>
<g>
	<g>
		<rect x="304" y="48" width="48" height="16"/>
	</g>
</g>
<g>
	<g>
		<path d="M256,8c-17.648,0-32,14.352-32,32s14.352,32,32,32s32-14.352,32-32S273.648,8,256,8z M256,56c-8.82,0-16-7.18-16-16
			s7.18-16,16-16s16,7.18,16,16S264.82,56,256,56z"/>
	</g>
</g>
<g>
</g>
<g>
</g>
<g>
</g>
<g>
</g>
<g>
</g>
<g>
</g>
<g>
</g>
<g>
</g>
<g>
</g>
<g>
</g>
<g>
</g>
<g>
</g>
<g>
</g>
<g>
</g>
<g>
</g>
</svg>
